<svg width="83" height="82" viewBox="0 0 83 82" fill="none" xmlns="http://www.w3.org/2000/svg">
<path d="M38.0611 0.274541L37.2171 0.548843L37.7657 0.780945C38.3776 1.03415 38.5886 1.41395 38.5886 2.32126C38.5886 2.91206 38.5464 2.93317 37.6602 2.93317C36.4997 2.93317 35.719 3.52397 35.4236 4.64228C34.8116 6.8578 36.4786 8.46142 38.3987 7.46971C38.884 7.2165 39.1161 7.1954 39.4537 7.38531C39.7913 7.55411 40.0445 7.55411 40.4665 7.36421C40.994 7.111 40.994 7.111 40.572 6.9422C40.0234 6.7312 39.9601 6.478 39.6225 2.86986C39.4537 1.11855 39.2638 -0.0208619 39.1372 0.000238284C39.0106 0.000238284 38.5253 0.126839 38.0611 0.274541ZM38.3354 3.71387C38.6519 3.98818 38.8207 4.45238 38.9262 5.38079C39.0528 6.6257 39.0317 6.7101 38.5253 7.0477C38.1877 7.2587 37.8079 7.34311 37.5336 7.2587C36.3731 6.9 35.8034 4.32578 36.7318 3.69277C37.3437 3.24967 37.8079 3.27077 38.3354 3.71387Z" fill="#8D4C4C"/>
<path d="M50.2985 1.66718C50.6572 2.06808 50.6572 2.17358 49.9609 4.74781C49.349 6.98443 49.1591 7.44863 48.716 7.68073L48.1885 7.95504L49.0536 8.18714C49.5178 8.31374 50.2352 8.48254 50.6361 8.54584L51.3535 8.69354L50.8471 8.27154C50.4251 7.93394 50.3618 7.74403 50.4884 7.13213C50.7205 5.92942 50.8471 5.84502 51.9021 6.11932C53.2736 6.49912 54.3286 6.22482 54.835 5.40191C55.7845 3.8616 55.0882 2.55339 53.0204 1.98368C52.3241 1.79378 51.5012 1.54058 51.1636 1.43508C50.1297 1.09747 49.8554 1.18187 50.2985 1.66718ZM53.5057 2.76439C54.1387 3.35519 54.1598 4.5579 53.5268 5.35971C53.147 5.86612 52.9782 5.92942 52.2397 5.82392C51.7755 5.76062 51.3113 5.61291 51.2058 5.50741C51.0159 5.31751 51.248 3.946 51.67 2.84879C51.9232 2.15248 52.8094 2.11028 53.5057 2.76439Z" fill="#8D4C4C"/>
<path d="M42.4282 3.43954C41.7319 4.09365 41.6475 4.28355 41.6475 5.21196C41.6475 6.03487 41.753 6.39357 42.1328 6.79447C42.8502 7.55408 44.0529 7.80728 44.9391 7.40638L45.6565 7.08988L44.6226 6.94218C43.863 6.83667 43.4621 6.66787 43.1034 6.22477C42.2383 5.23306 42.4071 5.04316 44.1795 5.04316H45.762V4.30465C45.762 2.61663 43.863 2.13133 42.4282 3.43954ZM44.6648 3.62944C44.7914 3.73495 44.918 4.00925 44.918 4.22025C44.918 4.55785 44.7492 4.62115 43.7364 4.62115C42.6392 4.62115 42.5759 4.57895 42.6392 4.15695C42.7658 3.31294 43.8841 3.01754 44.6648 3.62944Z" fill="#8D4C4C"/>
<path d="M25.0842 6.49916C25.0842 8.25048 25.0209 9.68529 24.9576 9.68529C24.8943 9.68529 23.7126 8.90459 22.32 7.95508C20.9274 7.02667 19.7458 6.30926 19.6614 6.37256C19.5981 6.45696 20.1256 7.80738 20.8219 9.38989C21.8558 11.6265 22.0879 12.3228 21.9191 12.6393C21.5815 13.2723 21.6659 13.2934 22.6576 12.8081C23.7126 12.3017 23.8603 12.0063 23.1007 12.0063C22.6998 12.0063 22.4888 11.732 21.8347 10.2972C21.3916 9.34769 21.0751 8.54588 21.1173 8.50368C21.1595 8.46148 22.0668 9.05229 23.1429 9.79079C24.219 10.5504 25.2319 11.1623 25.3796 11.1623C25.5906 11.1623 25.6328 10.677 25.5484 8.98899C25.4218 5.84506 25.464 5.78176 26.519 7.57527C27.2364 8.75688 27.4263 9.24219 27.3208 9.70639C27.2575 10.044 27.2575 10.3183 27.2997 10.3183C27.363 10.3183 27.9116 10.0651 28.5024 9.74859C29.5363 9.19999 29.5574 9.17889 29.0721 9.01009C28.6923 8.88349 28.1015 8.08168 27.0043 6.20376C26.1603 4.74785 25.3796 3.52404 25.2741 3.43964C25.1686 3.37633 25.0842 4.64235 25.0842 6.49916Z" fill="#8D4C4C"/>
<path d="M30.7809 4.28359C29.9369 4.7267 29.2617 5.4652 29.958 5.1909C31.7094 4.47349 32.0892 4.51569 32.3424 5.3808C32.4479 5.76061 32.3002 5.95051 31.4139 6.52021C29.8736 7.51192 29.5993 8.31373 30.591 8.84123C31.2029 9.17884 31.7727 9.09444 32.4268 8.52473C32.8277 8.20823 33.1231 8.08163 33.2075 8.20823C33.4185 8.54583 34.0726 8.46143 34.6001 7.99723L35.1065 7.59632L34.5579 7.57522C34.0515 7.57522 33.9671 7.44862 33.6295 6.14041C32.9754 3.62949 32.5323 3.33408 30.7809 4.28359ZM32.7644 6.85782C32.9332 7.53302 32.4057 8.20823 31.7305 8.20823C30.9075 8.20823 30.8864 7.53302 31.6461 6.87892C32.5112 6.18261 32.5956 6.16151 32.7644 6.85782Z" fill="#8D4C4C"/>
<path d="M56.207 6.7945C54.5612 8.44032 55.4263 10.9512 57.6418 11.0145C58.7179 11.0356 59.4142 10.5925 59.9206 9.55863C60.4692 8.37702 60.3215 7.59631 59.3509 6.7312C58.2959 5.82389 57.1565 5.84499 56.207 6.7945ZM58.6546 6.9211C59.7096 7.78621 59.0344 10.3393 57.7051 10.487C56.9877 10.5714 56.5868 10.2549 56.418 9.45313C56.2281 8.58802 56.4602 7.70181 57.051 7.0688C57.6629 6.4147 58.0005 6.3936 58.6546 6.9211Z" fill="#8D4C4C"/>
<path d="M62.8535 8.41924C62.1572 8.48254 61.7985 8.58805 61.9673 8.69355C62.4104 8.98895 62.2627 9.57975 61.3554 10.9513C60.8912 11.6687 60.5325 12.4283 60.5747 12.6182C60.6591 13.0191 62.0728 13.7576 62.5792 13.6521C62.8746 13.5888 62.8113 13.4833 62.2838 13.209C61.904 12.998 61.5875 12.7448 61.5875 12.6393C61.5875 12.3861 62.9801 10.1706 63.2333 10.0229C63.3388 9.95956 63.6131 10.044 63.8241 10.2128C64.0351 10.3816 64.3938 10.5293 64.5837 10.5293C65.2589 10.5293 65.1745 10.1495 64.436 9.70636C63.7608 9.32655 63.7186 9.22105 63.9085 8.82015C64.0562 8.58805 64.1195 8.37704 64.0773 8.35594C64.0351 8.33484 63.4865 8.35594 62.8535 8.41924Z" fill="#8D4C4C"/>
<path d="M13.7749 10.2549C12.9942 11.331 12.9731 11.3943 13.5428 11.2677C13.9437 11.1622 14.1969 11.2888 14.7244 11.8163L15.4207 12.4915L14.9143 12.8924C14.6611 13.0823 14.3657 13.2723 14.3024 13.2723C14.0703 13.2723 13.6905 14.3484 13.6905 15.0236C13.6905 15.4034 13.8804 15.9942 14.1125 16.374C15.1042 17.9987 16.9821 18.0409 17.8894 16.4373C18.1848 15.9309 18.5224 15.5933 18.7545 15.5933C18.9655 15.5933 19.3031 15.3823 19.4719 15.1291C19.9361 14.475 19.8939 14.264 19.3664 14.5805C18.9655 14.8337 18.7756 14.7071 17.1509 12.9557C16.1592 11.9007 15.1675 10.7402 14.8932 10.3815C14.64 10.0017 14.3657 9.68522 14.3024 9.68522C14.2391 9.68522 14.007 9.93842 13.7749 10.2549ZM17.0243 14.264C18.016 15.3401 18.0582 15.5089 17.5729 16.1841C16.8555 17.1969 14.8721 16.4373 14.3446 14.9392C14.1547 14.3695 14.1969 14.2429 14.64 13.7787C15.4207 12.9979 16.0115 13.1245 17.0243 14.264Z" fill="#8D4C4C"/>
<path d="M65.8705 11.3732C66.1659 11.8585 65.9127 12.365 64.7311 13.6521C64.288 14.1585 63.9082 14.7071 63.9082 14.8759C63.9082 15.2557 64.5201 15.7832 65.3641 16.1419C66.1448 16.4795 66.2292 16.163 65.4907 15.6777C65.1953 15.4878 64.9632 15.2135 64.9632 15.0869C64.9632 14.9392 65.4274 14.3062 65.9971 13.6732L67.031 12.5338L67.5585 13.0191C67.9594 13.3989 68.1915 13.4833 68.4447 13.3145C68.7612 13.1457 68.719 13.0613 68.1282 12.6393C67.7695 12.3861 67.5163 12.0696 67.5585 11.9218C67.9383 11.0356 67.9594 11.0567 66.7778 11.0145C65.7017 10.9934 65.6384 11.0145 65.8705 11.3732Z" fill="#8D4C4C"/>
<path d="M68.7615 14.897C68.1285 15.1291 67.2845 16.0997 67.1579 16.7538C66.9258 18.0198 68.1285 19.6024 69.3101 19.6024C69.5 19.6024 69.3734 19.3914 68.9725 19.0116C68.1918 18.3152 67.9386 17.1758 68.4239 16.5428C68.7193 16.1419 68.7615 16.1419 69.8165 17.1758C70.977 18.3152 71.3357 18.3363 71.8843 17.218C72.5384 15.8887 70.4284 14.2851 68.7615 14.897ZM70.6183 15.5089C71.1247 15.8465 71.2724 16.9226 70.8504 17.1969C70.7238 17.2602 70.2596 16.9648 69.7954 16.5217L68.9725 15.7199L69.4367 15.4456C70.0486 15.108 70.0486 15.108 70.6183 15.5089Z" fill="#8D4C4C"/>
<path d="M10.6729 17.2391C10.483 17.4501 10.2087 17.9354 10.0821 18.3152C9.95551 18.695 9.72341 18.9482 9.59681 18.906C9.47021 18.8427 9.19591 19.1804 9.006 19.6235C8.6684 20.4464 8.6684 20.4464 9.1115 20.3409C9.80781 20.1721 12.0022 21.9867 12.0022 22.7041C12.0022 23.2105 12.0444 23.1894 12.7196 22.3243C13.3948 21.4381 13.4159 21.3959 12.9728 21.3326C12.2976 21.2271 10.3142 19.6446 10.3142 19.2226C10.3142 18.6528 10.9261 17.9143 11.4114 17.9143C11.6646 17.9143 12.2976 18.273 12.8251 18.695C13.9857 19.6235 14.1334 19.8345 14.0068 20.1721C13.8379 20.6785 14.2178 20.4464 14.8086 19.729C15.4838 18.8427 15.5049 18.7583 14.9352 18.7583C14.7031 18.7583 13.9646 18.3363 13.2893 17.8088C11.9811 16.7749 11.2215 16.6272 10.6729 17.2391Z" fill="#8D4C4C"/>
<path d="M72.9814 18.5895C72.9814 19.2858 70.6815 20.9738 70.0274 20.7628C69.6476 20.6362 69.6687 20.7417 70.2384 21.5646C70.576 22.071 71.0191 22.6196 71.209 22.7884C71.5466 23.0627 71.5466 23.0416 71.3145 22.5985C70.9347 21.9022 71.1035 21.6279 72.4539 20.7417C73.5933 19.9821 73.6355 19.9821 74.0364 20.3408C74.2685 20.5518 74.4584 20.8472 74.4584 21.016C74.4584 21.3958 75.3447 21.3114 75.4713 20.9316C75.5135 20.7839 75.1969 20.4674 74.796 20.2142C74.2263 19.8766 74.0786 19.6867 74.2474 19.4968C74.4584 19.2436 74.3529 19.117 73.3612 18.3574C73.0236 18.1042 72.9814 18.1253 72.9814 18.5895Z" fill="#8D4C4C"/>
<path d="M53.042 20.1298C47.5559 21.3536 43.6946 24.9196 42.1754 30.1524C41.7956 31.4606 41.7112 32.3469 41.669 35.111L41.6479 38.487L40.9093 39.964L40.1919 41.441L40.0653 38.698C39.8543 34.6046 39.3901 32.9799 37.6177 30.3423C35.1701 26.6498 30.929 24.4343 25.6961 24.0967C23.8182 23.9912 23.6283 24.0123 23.2063 24.4343C22.8265 24.8141 22.7632 25.1095 22.7632 26.8186C22.7632 29.2873 23.3329 31.5661 24.4934 33.9505C25.2319 35.4064 25.7594 36.1238 27.4052 37.7696C30.2116 40.597 32.3005 41.652 36.8581 42.6015C39.0736 43.0658 39.2213 43.1291 39.2213 43.5722C39.2213 44.0153 37.3223 47.5601 35.7187 50.1554C32.828 54.7764 28.2281 60.8321 25.0842 64.1026C23.5861 65.6852 23.4173 66.0861 24.1558 66.1916C24.5356 66.2549 24.9154 65.854 29.0932 61.0642C30.8446 59.0386 34.1995 54.5021 35.6976 52.0966C36.4572 50.8728 37.3223 49.5224 37.6177 49.0793C38.3984 47.961 38.9681 48.0243 40.4451 49.4169C42.0699 50.915 42.8506 51.4847 44.6019 52.3498C49.9613 55.0507 55.9116 54.692 60.7435 51.4003C62.2838 50.3242 63.2756 49.3325 63.2756 48.8472C63.2756 48.2775 61.3976 45.9565 60.0894 44.9015C57.1987 42.5804 54.5401 41.5254 51.1429 41.3777C47.4504 41.23 45.256 41.9685 41.6057 44.585C40.5928 45.3024 39.6433 45.9776 39.4956 46.0409C39.2846 46.1675 40.6772 42.9602 41.9222 40.5126C42.3864 39.5631 43.4836 38.8879 44.9606 38.6136C51.375 37.4531 56.1015 33.2542 58.0216 26.9874C58.4014 25.7425 58.5069 24.8774 58.5069 22.9151C58.528 20.6784 58.4858 20.383 58.1271 20.1087C57.5996 19.7289 54.8144 19.75 53.042 20.1298ZM57.3675 20.9738C57.7473 21.4381 57.4941 24.9829 56.9455 26.9874C55.5529 31.9248 51.9237 35.533 46.6275 37.1999C44.6441 37.8329 43.6524 37.8962 43.6524 37.432C43.6524 36.9045 45.6147 33.4019 47.0073 31.3973C48.6109 29.1396 51.7126 25.9535 53.6539 24.5609C55.0676 23.5481 55.2997 23.1472 54.4557 23.0206C54.1392 22.9784 53.5695 23.316 52.6833 24.0756C48.6742 27.4727 46.1633 30.4056 44.1799 34.0138C43.6102 35.0688 42.9983 35.955 42.8717 36.0183C42.4286 36.1449 42.5341 32.6212 43.0194 30.701C44.4753 24.9829 48.3788 21.7546 55.0465 20.7839C56.3125 20.6151 57.1143 20.6784 57.3675 20.9738ZM29.2831 25.7003C34.2839 27.0085 37.681 30.4267 38.6938 35.1743C39.0314 36.799 39.0947 39.2466 38.8204 39.964C38.6727 40.3227 38.5883 40.2594 38.1663 39.4365C36.9003 36.9467 34.8325 34.1826 32.3638 31.7349C29.7051 29.0763 27.0254 27.0507 26.4346 27.2828C25.886 27.4938 26.2025 27.8736 28.0593 29.2029C31.4776 31.6294 35.0435 35.6807 37.0902 39.4365C38.3984 41.8419 38.3351 41.9685 35.9297 41.5254C34.2206 41.2089 32.195 40.386 30.5703 39.331C26.4979 36.6724 24.0503 32.4735 23.6705 27.4727C23.4806 24.9829 23.4595 25.004 25.675 25.1306C26.6878 25.1939 28.3125 25.4682 29.2831 25.7003ZM53.1897 42.4116C55.1098 42.7914 57.9372 44.3107 59.6885 45.8932C60.5536 46.6739 61.5031 47.6234 61.7774 48.0032C62.2627 48.6784 62.2627 48.7417 61.9251 49.227C61.5031 49.8811 59.3931 51.337 57.895 51.9911C53.5484 53.9113 48.3366 53.6158 44.3487 51.2104C42.513 50.1132 40.8038 48.6362 40.8038 48.1931C40.8038 47.4968 43.6313 47.0537 47.9779 47.0537C51.797 47.0326 53.9071 47.3069 56.8611 48.1509C58.6757 48.6784 59.0555 48.6784 59.0555 48.0876C59.0555 47.7922 58.5702 47.6023 56.3758 47.0537C54.8777 46.695 53.0209 46.2941 52.198 46.1886C50.1512 45.9143 45.6147 45.9565 43.3359 46.273C42.302 46.4207 41.3947 46.5262 41.3525 46.484C41.1837 46.3152 42.4919 45.0914 43.7157 44.2896C44.9817 43.4245 46.7752 42.6859 48.1889 42.3905C49.4549 42.1373 51.9237 42.1584 53.1897 42.4116Z" fill="#8D4C4C"/>
<path d="M75.8511 22.4298C75.7878 22.7252 75.1548 23.6747 74.4585 24.5398C73.4246 25.848 73.087 26.1434 72.6017 26.1434C71.8843 26.1434 71.6522 25.9746 71.2513 25.215C70.9348 24.6031 70.9348 24.6031 70.6816 25.0462C70.5128 25.3838 70.4917 25.637 70.6605 25.9324C71.0614 26.692 71.5256 26.7764 74.1631 26.5443C75.5557 26.4177 77.0749 26.3755 77.5814 26.4388C78.0667 26.5021 78.4676 26.5232 78.4676 26.4599C78.4676 26.4177 78.2777 26.059 78.0667 25.7003C77.6869 25.0884 77.6658 25.0673 77.5181 25.4893C77.4126 25.8269 77.2016 25.9324 76.6951 25.9324C76.2942 25.9324 75.6823 25.9957 75.3236 26.059C74.9438 26.1434 74.6695 26.1012 74.6695 25.9957C74.6695 25.637 76.3786 23.8224 76.6951 23.8224C76.8639 23.8224 76.9905 23.7802 76.9905 23.7169C76.9905 23.5903 76.1254 21.9234 76.041 21.9234C75.9988 21.9234 75.9144 22.1555 75.8511 22.4298Z" fill="#8D4C4C"/>
<path d="M6.95912 22.5353C6.64261 22.7463 5.86191 24.8774 6.00961 25.1306C6.19951 25.4049 6.45271 25.1306 6.62151 24.5187C6.81141 23.7591 7.10682 23.4004 7.57102 23.4004C8.26733 23.4004 8.47833 23.9279 8.26733 25.1517C8.16183 25.7847 8.14073 26.481 8.22513 26.7342C8.45723 27.3461 9.17464 27.5149 9.78654 27.114C10.2085 26.8397 10.314 26.5865 10.314 25.8269C10.314 25.0462 10.3773 24.8774 10.6938 24.8774C11.2214 24.8774 11.5801 24.4765 11.5801 23.8857C11.5801 23.4637 11.5379 23.4215 11.1792 23.6536C10.8416 23.8646 10.5461 23.7802 9.30124 23.1261C7.76092 22.3032 7.44442 22.2399 6.95912 22.5353ZM9.76544 24.6453C10.4195 25.3627 9.70214 26.6076 8.94253 26.059C8.64713 25.848 8.60493 25.637 8.71043 25.0251C8.87923 24.16 9.21684 24.0334 9.76544 24.6453Z" fill="#8D4C4C"/>
<path d="M2.21163 26.3545C1.78962 27.6205 1.45202 28.7177 1.45202 28.8232C1.45202 28.8865 1.64192 28.781 1.87403 28.57C2.29603 28.1902 2.80243 28.2324 4.04735 28.7177C4.74365 28.992 4.74365 29.2452 4.17395 30.9754L3.73084 32.3047L2.97124 32.157C1.76852 31.9249 1.03002 31.4607 1.03002 30.9543C1.03002 30.1103 0.671314 30.8488 0.0805087 32.8533C-0.0671926 33.3386 -0.0460924 33.3386 0.439212 33.0221C0.924517 32.7056 1.09332 32.7267 3.37214 33.4863C6.17847 34.4147 6.30507 34.478 6.30507 35.0266C6.30507 35.7862 6.64267 35.4275 7.00137 34.3092C7.46558 32.8111 7.46558 32.5157 6.98027 32.9588C6.62157 33.2964 6.49497 33.2964 5.50326 33.001C4.87025 32.8111 4.40605 32.5368 4.40605 32.3891C4.40605 32.2203 4.59595 31.4607 4.84915 30.68L5.27116 29.2663L6.03076 29.414C7.10687 29.6039 7.71878 29.9415 7.92978 30.4268C8.09858 30.8277 8.18298 30.7011 8.58389 29.5617C8.81599 28.8443 8.94259 28.2535 8.83709 28.2535C8.73159 28.2535 8.58389 28.3379 8.52059 28.4645C8.28849 28.8443 7.31788 28.6755 5.03906 27.8737C3.32994 27.2618 2.78133 26.9664 2.57033 26.5655C2.38043 26.1857 2.29603 26.1435 2.21163 26.3545Z" fill="#8D4C4C"/>
<path d="M81.7376 29.7937C81.5688 30.1735 81.0413 30.3846 78.8891 30.9543L76.2516 31.6717L75.8718 31.1864C75.6819 30.9332 75.4709 30.7644 75.4076 30.8066C75.2388 30.9965 76.3782 34.9 76.758 35.4275C77.7497 36.7779 79.6487 36.5247 80.0285 34.9633L80.2184 34.2037L80.8092 34.6257C81.3156 35.0055 81.4844 35.0266 82.033 34.8156C83.088 34.3725 83.2357 33.6129 82.6871 31.4607C82.1174 29.3506 82.0119 29.1396 81.7376 29.7937ZM82.2229 31.6717C82.666 32.1148 82.5183 33.0432 81.9275 33.5074C80.9358 34.2881 80.134 33.9083 79.8597 32.5579C79.7331 31.9671 79.7753 31.8827 80.4083 31.6928C81.3578 31.3763 81.9275 31.3763 82.2229 31.6717ZM79.3955 32.3891C79.4588 32.579 79.5221 33.0854 79.5221 33.5285C79.5221 34.1615 79.3955 34.4358 78.9735 34.7734C77.8552 35.6385 76.8213 35.2165 76.4626 33.7184C76.3149 33.0854 76.6736 32.7056 77.813 32.3469C78.8891 31.9882 79.2478 32.0093 79.3955 32.3891Z" fill="#8D4C4C"/>
<path d="M81.2745 37.221C81.0424 37.643 77.5187 39.6475 77.0123 39.6475C76.5481 39.6475 75.9361 38.8035 75.9361 38.1494C75.9361 37.643 75.8728 37.5164 75.5985 37.6219C75.4086 37.6852 75.2187 37.7485 75.1765 37.7485C75.0288 37.7485 75.0921 38.8879 75.2609 39.1622C75.4508 39.4787 76.2949 39.8374 79.1223 40.808C80.3039 41.2089 81.4644 41.7153 81.6754 41.9052C82.0341 42.2217 82.0552 42.2006 82.0552 41.4832C82.0552 41.0612 81.9708 40.6603 81.8442 40.597C81.7387 40.5337 81.6332 40.5759 81.6332 40.6814C81.6332 41.019 80.8103 40.9557 79.6709 40.5337C78.5315 40.0906 78.5737 40.0273 80.114 39.2466C80.6415 38.9723 81.1901 38.8457 81.4433 38.909C81.8864 39.0567 81.9286 38.698 81.6543 37.432C81.5277 36.8412 81.5066 36.8201 81.2745 37.221Z" fill="#8D4C4C"/>
<path d="M29.1779 72.606C29.3256 73.661 27.8697 77.8811 27.2578 78.1554C26.9835 78.2609 26.7725 78.4086 26.7725 78.493C26.7725 78.5563 27.3 78.7673 27.933 78.9361C28.566 79.1049 29.0935 79.2315 29.0935 79.1893C29.0935 79.1471 28.9036 78.915 28.6715 78.6829C28.2917 78.3031 28.2917 78.1976 28.5449 77.4802C28.6926 77.0371 28.988 76.1297 29.199 75.4545C29.41 74.8004 29.621 74.2518 29.7054 74.2518C29.7687 74.2729 30.4861 75.6444 31.309 77.3325C32.7016 80.2443 32.997 80.7507 33.2291 80.5397C33.2713 80.4764 33.7144 79.126 34.1997 77.5435C34.9593 75.0114 35.1492 74.6105 35.6345 74.4206L36.162 74.2096L35.4235 73.9353C35.0226 73.7876 34.4529 73.5977 34.1575 73.5133C33.6511 73.3656 33.6511 73.3656 34.0098 73.7665C34.4951 74.3362 34.474 74.716 33.7566 76.7839L33.1658 78.5774L31.6255 75.4123C30.7815 73.661 30.0852 72.2262 30.0641 72.2262C30.0641 72.2051 29.832 72.1207 29.5577 72.0363C29.0935 71.9097 29.0724 71.9519 29.1779 72.606Z" fill="#8D4C4C"/>
<path d="M49.8769 73.2812C47.4504 74.3573 47.1761 77.9233 49.3916 79.5902C50.742 80.603 52.5144 80.4975 53.8648 79.3159C54.8143 78.4719 55.1097 77.6701 55.0042 76.2564C54.8987 74.9481 54.4556 74.2096 53.3584 73.45C52.5566 72.9014 50.9108 72.817 49.8769 73.2812ZM52.6199 74.3362C53.4006 74.927 54.2024 76.4252 54.2024 77.2692C54.2024 79.0205 52.4511 80.0544 50.8686 79.2315C49.687 78.6196 48.7164 77.0582 48.7164 75.7711C48.7164 75.0747 49.3916 74.1041 50.0668 73.8087C50.742 73.5344 51.8392 73.7454 52.6199 74.3362Z" fill="#8D4C4C"/>
<path d="M37.0059 74.5473C37.3646 74.8216 37.3857 74.9482 37.1325 77.016C36.7316 80.4764 36.7105 80.5397 36.2462 80.6874C35.571 80.9195 36.0352 81.1516 37.4279 81.3204C38.6728 81.4681 38.6939 81.4681 38.3141 81.0672C37.8921 80.603 37.871 79.8223 38.1664 77.4802C38.4829 75.0959 38.5462 74.9271 39.0737 74.7583C39.5168 74.6106 39.5168 74.6106 39.1159 74.4417C38.8838 74.3573 38.2297 74.2729 37.66 74.2729C36.7105 74.2518 36.6472 74.2729 37.0059 74.5473Z" fill="#8D4C4C"/>
<path d="M41.0783 74.6105L39.8545 74.6949L40.3609 75.1591C40.8251 75.5811 40.8884 75.8343 40.9939 78.3031C41.1416 80.8984 41.1205 80.9828 40.6563 81.2993C40.2132 81.6158 40.2554 81.6369 41.6902 81.6369C42.5342 81.6369 43.2727 81.5314 43.336 81.4259C43.3993 81.2993 43.2727 81.2149 43.0406 81.2149C42.4498 81.2149 42.1755 80.603 42.1755 79.3159C42.1755 78.4086 42.2388 78.2398 42.5131 78.3453C42.703 78.4086 42.9773 78.4719 43.125 78.4719C43.2727 78.4719 43.7791 78.8728 44.2222 79.3581C46.0791 81.3837 46.1213 81.4259 46.902 81.4259C47.324 81.4259 47.6616 81.3204 47.6616 81.2149C47.6616 81.0883 47.535 81.0039 47.4084 81.0039C47.2607 81.0039 46.5222 80.3287 45.7625 79.5269L44.3699 78.0499L44.8763 77.7123C45.9313 77.016 45.9102 75.5178 44.8341 74.8637C44.18 74.4628 43.8635 74.4417 41.0783 74.6105ZM44.1378 75.56C44.3277 75.7921 44.4965 76.2564 44.4965 76.5729C44.4965 77.3325 43.9479 77.7756 42.914 77.8811L42.07 77.9444L42.0067 76.6784C41.9434 75.6655 42.0067 75.3701 42.3232 75.138C42.8085 74.8004 43.6525 74.9903 44.1378 75.56Z" fill="#8D4C4C"/>
</svg>
