<svg width="95" height="93" viewBox="0 0 95 93" fill="none" xmlns="http://www.w3.org/2000/svg">
<path d="M60.4259 22.9319C54.1762 24.326 49.7774 28.3883 48.0468 34.3495C47.6141 35.8398 47.5179 36.8493 47.4699 39.9982L47.4458 43.8441L46.6045 45.5267L45.7873 47.2093L45.643 44.0845C45.4027 39.4213 44.8739 37.5705 42.8547 34.5658C40.0664 30.3593 35.235 27.8354 29.2738 27.4508C27.1345 27.3306 26.9181 27.3547 26.4374 27.8354C26.0047 28.2681 25.9326 28.6046 25.9326 30.5516C25.9326 33.364 26.5816 35.96 27.9037 38.6762C28.745 40.3347 29.3459 41.152 31.2208 43.0269C34.4177 46.2479 36.7974 47.4497 41.9894 48.5314C44.5133 49.0602 44.6816 49.1323 44.6816 49.6371C44.6816 50.1419 42.5182 54.1801 40.6914 57.1367C37.3983 62.4008 32.1582 69.2994 28.5767 73.0252C26.8701 74.828 26.6778 75.2847 27.5191 75.4049C27.9517 75.477 28.3844 75.0203 33.1438 69.5639C35.1388 67.2563 38.9607 62.0883 40.6674 59.3481C41.5327 57.9539 42.5182 56.4156 42.8547 55.9108C43.7441 54.6368 44.3931 54.7089 46.0757 56.2954C47.9266 58.002 48.8159 58.651 50.811 59.6365C56.9165 62.7133 63.6949 62.3046 69.1994 58.5549C70.9541 57.329 72.0839 56.1992 72.0839 55.6464C72.0839 54.9974 69.9446 52.3533 68.4543 51.1514C65.1612 48.5073 62.1325 47.3055 58.2625 47.1372C54.056 46.969 51.5562 47.8103 47.3978 50.7909C46.244 51.6081 45.1623 52.3773 44.994 52.4494C44.7537 52.5937 46.3401 48.94 47.7583 46.1517C48.2871 45.07 49.5371 44.3008 51.2197 43.9884C58.5269 42.6663 63.9113 37.8829 66.0986 30.7439C66.5313 29.3257 66.6515 28.3402 66.6515 26.1048C66.6755 23.5568 66.6274 23.2203 66.2188 22.9078C65.6179 22.4752 62.445 22.4992 60.4259 22.9319ZM65.3535 23.8933C65.7861 24.4222 65.4977 28.4604 64.8727 30.7439C63.2863 36.3686 59.1519 40.4789 53.1186 42.3779C50.8591 43.099 49.7294 43.1711 49.7294 42.6423C49.7294 42.0414 51.9648 38.0512 53.5513 35.7677C55.3781 33.1957 58.9115 29.5661 61.1229 27.9796C62.7334 26.8259 62.9978 26.3692 62.0364 26.2249C61.6758 26.1769 61.0268 26.5615 60.0172 27.4268C55.4502 31.2968 52.5898 34.6379 50.3303 38.7483C49.6813 39.9501 48.9842 40.9597 48.84 41.0318C48.3352 41.176 48.4554 37.1618 49.0082 34.9744C50.6668 28.4604 55.1137 24.7827 62.7094 23.677C64.1516 23.4847 65.065 23.5568 65.3535 23.8933ZM33.3601 29.2777C39.0569 30.768 42.9269 34.662 44.0806 40.0703C44.4652 41.9212 44.5373 44.7095 44.2249 45.5267C44.0566 45.9354 43.9604 45.8633 43.4797 44.9258C42.0375 42.0894 39.6818 38.9406 36.8695 36.1523C33.8408 33.1236 30.7881 30.816 30.1151 31.0804C29.4901 31.3208 29.8507 31.7535 31.9659 33.2678C35.8599 36.0321 39.9222 40.6472 42.2538 44.9258C43.7441 47.666 43.672 47.8103 40.9318 47.3055C38.9848 46.9449 36.6772 46.0075 34.8263 44.8056C30.1872 41.777 27.3989 36.9936 26.9662 31.2968C26.7499 28.4604 26.7258 28.4844 29.2497 28.6287C30.4035 28.7008 32.2544 29.0132 33.3601 29.2777ZM60.5941 48.315C62.7815 48.7477 66.0025 50.4784 67.9976 52.2812C68.9831 53.1705 70.0648 54.2522 70.3772 54.6849C70.9301 55.4541 70.9301 55.5262 70.5455 56.079C70.0648 56.8242 67.661 58.4827 65.9544 59.2279C61.0028 61.4153 55.0656 61.0788 50.5226 58.3385C48.4314 57.0886 46.4843 55.406 46.4843 54.9012C46.4843 54.108 49.7053 53.6032 54.657 53.6032C59.0077 53.5792 61.4114 53.8917 64.7766 54.8531C66.8438 55.4541 67.2764 55.4541 67.2764 54.781C67.2764 54.4445 66.7236 54.2282 64.2237 53.6032C62.5171 53.1946 60.4018 52.7379 59.4644 52.6177C57.1328 52.3052 51.9648 52.3533 49.3688 52.7138C48.191 52.8821 47.1574 53.0023 47.1093 52.9542C46.917 52.7619 48.4073 51.3678 49.8015 50.4543C51.2437 49.4688 53.2868 48.6275 54.8973 48.291C56.3396 48.0026 59.1519 48.0266 60.5941 48.315Z" fill="#1E1E1E"/>
<path d="M43.3592 0.312802L42.3977 0.625284L43.0227 0.889693C43.7197 1.17814 43.9601 1.61081 43.9601 2.6444C43.9601 3.31744 43.912 3.34148 42.9025 3.34148C41.5804 3.34148 40.6911 4.01452 40.3545 5.28848C39.6575 7.81238 41.5564 9.6392 43.7438 8.50946C44.2966 8.22101 44.561 8.19697 44.9456 8.41331C45.3302 8.6056 45.6187 8.6056 46.0994 8.38927C46.7003 8.10083 46.7003 8.10083 46.2196 7.90853C45.5946 7.66816 45.5225 7.37971 45.1379 3.26937C44.9456 1.27429 44.7293 -0.0237176 44.5851 0.000319501C44.4409 0.000319501 43.888 0.144542 43.3592 0.312802ZM43.6717 4.23085C44.0322 4.54333 44.2245 5.07215 44.3447 6.12978C44.4889 7.54797 44.4649 7.64412 43.888 8.02871C43.5034 8.26909 43.0707 8.36523 42.7583 8.26909C41.4362 7.86045 40.7872 4.92793 41.8448 4.20681C42.5419 3.70203 43.0707 3.72607 43.6717 4.23085Z" fill="#484040"/>
<path d="M57.2992 1.89933C57.7078 2.35603 57.7078 2.47622 56.9146 5.40875C56.2175 7.95668 56.0012 8.4855 55.4964 8.74991L54.8955 9.06239L55.881 9.3268C56.4098 9.47102 57.2271 9.66332 57.6838 9.73543L58.5011 9.90369L57.9242 9.42294C57.4434 9.03835 57.3713 8.82202 57.5156 8.12494C57.78 6.75482 57.9242 6.65868 59.126 6.97116C60.6885 7.40383 61.8903 7.09134 62.4672 6.1539C63.5489 4.39919 62.7556 2.90889 60.4 2.25989C59.6068 2.04355 58.6693 1.75511 58.2847 1.63492C57.1069 1.25033 56.7944 1.34647 57.2992 1.89933ZM60.9529 3.14926C61.674 3.8223 61.698 5.19241 60.9769 6.10582C60.5442 6.68271 60.3519 6.75482 59.5106 6.63464C58.9818 6.56253 58.453 6.39427 58.3328 6.27408C58.1165 6.05775 58.3809 4.49534 58.8616 3.24541C59.1501 2.45218 60.1596 2.40411 60.9529 3.14926Z" fill="#484040"/>
<path d="M48.3337 3.91838C47.5405 4.66353 47.4443 4.87986 47.4443 5.9375C47.4443 6.87494 47.5645 7.28357 47.9972 7.74028C48.8145 8.60561 50.1846 8.89406 51.1941 8.43736L52.0114 8.0768L50.8336 7.90854C49.9682 7.78835 49.5115 7.59606 49.1029 7.09128C48.1174 5.96153 48.3097 5.7452 50.3288 5.7452H52.1316V4.9039C52.1316 2.98093 49.9682 2.42808 48.3337 3.91838ZM50.8816 4.13471C51.0259 4.2549 51.1701 4.56738 51.1701 4.80775C51.1701 5.19234 50.9778 5.26446 49.824 5.26446C48.5741 5.26446 48.502 5.21638 48.5741 4.73564C48.7183 3.77415 49.9923 3.43764 50.8816 4.13471Z" fill="#484040"/>
<path d="M28.576 7.40394C28.576 9.39902 28.5039 11.0335 28.4318 11.0335C28.3597 11.0335 27.0136 10.1442 25.4271 9.0625C23.8407 8.00486 22.4946 7.1876 22.3984 7.25971C22.3263 7.35586 22.9273 8.89424 23.7205 10.697C24.8983 13.245 25.1627 14.0382 24.9704 14.3987C24.5858 15.1198 24.682 15.1439 25.8117 14.591C27.0136 14.0141 27.1818 13.6776 26.3165 13.6776C25.8598 13.6776 25.6194 13.3651 24.8743 11.7306C24.3695 10.6489 24.0089 9.73554 24.057 9.68746C24.1051 9.63939 25.1387 10.3124 26.3646 11.1537C27.5905 12.0191 28.7442 12.7161 28.9125 12.7161C29.1529 12.7161 29.201 12.1633 29.1048 10.2403C28.9606 6.65879 29.0087 6.58667 30.2105 8.62983C31.0278 9.97591 31.2441 10.5288 31.1239 11.0576C31.0518 11.4422 31.0518 11.7547 31.0999 11.7547C31.172 11.7547 31.797 11.4662 32.47 11.1057C33.6478 10.4807 33.6719 10.4566 33.119 10.2644C32.6863 10.1201 32.0133 9.20672 30.7634 7.06742C29.8019 5.40886 28.9125 4.0147 28.7923 3.91855C28.6721 3.84644 28.576 5.28867 28.576 7.40394Z" fill="#484040"/>
<path d="M35.0646 4.87999C34.1031 5.38477 33.334 6.22606 34.1272 5.91358C36.1223 5.09632 36.5549 5.14439 36.8434 6.12992C36.9636 6.56258 36.7953 6.77892 35.7857 7.42792C34.031 8.55766 33.7185 9.47107 34.8483 10.072C35.5454 10.4566 36.1944 10.3604 36.9395 9.71145C37.3962 9.35089 37.7327 9.20667 37.8289 9.35089C38.0693 9.73548 38.8144 9.63933 39.4153 9.11052L39.9922 8.65381L39.3673 8.62978C38.7904 8.62978 38.6942 8.48555 38.3096 6.99525C37.5645 4.13484 37.0597 3.79832 35.0646 4.87999ZM37.3241 7.81251C37.5164 8.5817 36.9155 9.35089 36.1463 9.35089C35.2088 9.35089 35.1848 8.5817 36.0501 7.83655C37.0357 7.04333 37.1318 7.01929 37.3241 7.81251Z" fill="#484040"/>
<path d="M64.0302 7.7404C62.1553 9.6153 63.1408 12.4757 65.6647 12.5478C66.8906 12.5719 67.6838 12.0671 68.2607 10.8893C68.8857 9.54319 68.7174 8.65382 67.6117 7.66829C66.4098 6.6347 65.1118 6.65873 64.0302 7.7404ZM66.8185 7.88463C68.0203 8.87015 67.2511 11.7786 65.7368 11.9469C64.9195 12.043 64.4628 11.6825 64.2705 10.7691C64.0542 9.78356 64.3186 8.774 64.9916 8.05289C65.6887 7.30774 66.0733 7.2837 66.8185 7.88463Z" fill="#484040"/>
<path d="M71.6018 9.59114C70.8086 9.66325 70.4 9.78344 70.5922 9.90362C71.097 10.2401 70.9288 10.9132 69.8952 12.4756C69.3664 13.2929 68.9577 14.1582 69.0058 14.3745C69.1019 14.8312 70.7124 15.6725 71.2893 15.5523C71.6258 15.4802 71.5537 15.36 70.9528 15.0476C70.5201 14.8072 70.1596 14.5187 70.1596 14.3986C70.1596 14.1101 71.746 11.5862 72.0345 11.418C72.1547 11.3459 72.4671 11.442 72.7075 11.6343C72.9479 11.8266 73.3565 11.9949 73.5728 11.9949C74.342 11.9949 74.2459 11.5622 73.4046 11.0574C72.6354 10.6247 72.5873 10.5046 72.8037 10.0478C72.9719 9.78344 73.044 9.54307 72.996 9.51903C72.9479 9.49499 72.3229 9.51903 71.6018 9.59114Z" fill="#484040"/>
<path d="M15.6917 11.6824C14.8024 12.9083 14.7783 12.9804 15.4273 12.8362C15.884 12.716 16.1725 12.8602 16.7734 13.4612L17.5666 14.2303L16.9897 14.687C16.7013 14.9034 16.3648 15.1197 16.2927 15.1197C16.0282 15.1197 15.5956 16.3456 15.5956 17.1148C15.5956 17.5475 15.8119 18.2205 16.0763 18.6532C17.2061 20.504 19.3454 20.5521 20.379 18.7253C20.7155 18.1484 21.1001 17.7638 21.3645 17.7638C21.6049 17.7638 21.9894 17.5234 22.1817 17.235C22.7106 16.4898 22.6625 16.2495 22.0616 16.61C21.6049 16.8985 21.3885 16.7542 19.5377 14.7592C18.4079 13.5573 17.2782 12.2353 16.9657 11.8266C16.6772 11.394 16.3648 11.0334 16.2927 11.0334C16.2205 11.0334 15.9561 11.3219 15.6917 11.6824ZM19.3934 16.2495C20.5232 17.4754 20.5713 17.6677 20.0184 18.4368C19.2011 19.5906 16.9417 18.7253 16.3407 17.0186C16.1244 16.3696 16.1725 16.2254 16.6772 15.6966C17.5666 14.8072 18.2397 14.9515 19.3934 16.2495Z" fill="#484040"/>
<path d="M75.0392 12.9564C75.3757 13.5092 75.0872 14.0861 73.7412 15.5524C73.2364 16.1293 72.8037 16.7543 72.8037 16.9466C72.8037 17.3792 73.5008 17.9801 74.4623 18.3888C75.3516 18.7734 75.4478 18.4128 74.6065 17.86C74.27 17.6436 74.0056 17.3311 74.0056 17.1869C74.0056 17.0187 74.5344 16.2976 75.1834 15.5764L76.3612 14.2784L76.9621 14.8313C77.4188 15.264 77.6832 15.3601 77.9717 15.1678C78.3322 14.9755 78.2842 14.8794 77.6111 14.3986C77.2025 14.1102 76.9141 13.7496 76.9621 13.5814C77.3948 12.5718 77.4188 12.5958 76.0728 12.5478C74.8469 12.5237 74.7748 12.5478 75.0392 12.9564Z" fill="#484040"/>
<path d="M78.3325 16.9704C77.6114 17.2349 76.6499 18.3406 76.5057 19.0857C76.2413 20.5279 77.6114 22.3307 78.9575 22.3307C79.1738 22.3307 79.0296 22.0903 78.5729 21.6577C77.6835 20.8645 77.395 19.5665 77.9479 18.8453C78.2844 18.3886 78.3325 18.3886 79.5343 19.5665C80.8564 20.8645 81.265 20.8885 81.89 19.6145C82.6351 18.1002 80.2314 16.2734 78.3325 16.9704ZM80.4478 17.6675C81.0246 18.0521 81.1929 19.278 80.7122 19.5905C80.5679 19.6626 80.0391 19.3261 79.5103 18.8213L78.5729 17.9079L79.1017 17.5954C79.7988 17.2108 79.7988 17.2108 80.4478 17.6675Z" fill="#484040"/>
<path d="M12.1583 19.6386C11.9419 19.8789 11.6294 20.4318 11.4852 20.8644C11.341 21.2971 11.0766 21.5856 10.9324 21.5375C10.7881 21.4654 10.4757 21.85 10.2593 22.3548C9.87473 23.2922 9.87473 23.2922 10.3795 23.172C11.1727 22.9797 13.6726 25.0469 13.6726 25.8642C13.6726 26.4411 13.7207 26.417 14.4899 25.4315C15.259 24.4219 15.2831 24.3739 14.7783 24.3018C14.0091 24.1816 11.7496 22.3788 11.7496 21.898C11.7496 21.249 12.4467 20.4077 12.9996 20.4077C13.288 20.4077 14.0091 20.8164 14.61 21.2971C15.9321 22.3548 16.1003 22.5951 15.9561 22.9797C15.7638 23.5566 16.1965 23.2922 16.8695 22.4749C17.6387 21.4654 17.6628 21.3692 17.0138 21.3692C16.7493 21.3692 15.908 20.8885 15.1389 20.2876C13.6486 19.1097 12.7832 18.9415 12.1583 19.6386Z" fill="#484040"/>
<path d="M83.1392 21.1771C83.1392 21.9703 80.5191 23.8933 79.774 23.6529C79.3413 23.5087 79.3653 23.6289 80.0143 24.5663C80.3989 25.1432 80.9037 25.7682 81.12 25.9605C81.5046 26.273 81.5046 26.2489 81.2402 25.7441C80.8076 24.9509 80.9999 24.6384 82.5382 23.6289C83.8362 22.7635 83.8843 22.7635 84.341 23.1722C84.6054 23.4125 84.8218 23.7491 84.8218 23.9414C84.8218 24.374 85.8313 24.2779 85.9755 23.8452C86.0236 23.6769 85.6631 23.3164 85.2063 23.0279C84.5573 22.6434 84.3891 22.427 84.5814 22.2107C84.8218 21.9222 84.7016 21.778 83.5718 20.9127C83.1872 20.6242 83.1392 20.6483 83.1392 21.1771Z" fill="#484040"/>
<path d="M86.4092 25.5518C86.3371 25.8883 85.616 26.9699 84.8227 27.9555C83.6449 29.4458 83.2603 29.7823 82.7075 29.7823C81.8902 29.7823 81.6258 29.59 81.1691 28.7247C80.8085 28.0276 80.8085 28.0276 80.5201 28.5324C80.3278 28.917 80.3038 29.2054 80.496 29.5419C80.9528 30.4073 81.4816 30.5034 84.4862 30.239C86.0727 30.0948 87.8033 30.0467 88.3802 30.1188C88.9331 30.1909 89.3898 30.215 89.3898 30.1428C89.3898 30.0948 89.1734 29.6861 88.9331 29.2775C88.5004 28.5804 88.4764 28.5564 88.3081 29.0371C88.1879 29.4217 87.9476 29.5419 87.3707 29.5419C86.914 29.5419 86.2169 29.614 85.8082 29.6861C85.3756 29.7823 85.0631 29.7342 85.0631 29.614C85.0631 29.2054 87.0101 27.1382 87.3707 27.1382C87.563 27.1382 87.7072 27.0901 87.7072 27.018C87.7072 26.8738 86.7217 24.9749 86.6255 24.9749C86.5774 24.9749 86.4813 25.2393 86.4092 25.5518Z" fill="#484040"/>
<path d="M7.92782 25.6721C7.56727 25.9125 6.67789 28.3402 6.84615 28.6287C7.06249 28.9411 7.35093 28.6287 7.54323 27.9316C7.75956 27.0662 8.09608 26.6576 8.6249 26.6576C9.41812 26.6576 9.65849 27.2585 9.41812 28.6527C9.29794 29.3738 9.2739 30.167 9.37005 30.4555C9.63446 31.1526 10.4517 31.3448 11.1488 30.8881C11.6295 30.5757 11.7497 30.2872 11.7497 29.4219C11.7497 28.5325 11.8218 28.3402 12.1824 28.3402C12.7833 28.3402 13.1919 27.8835 13.1919 27.2105C13.1919 26.7297 13.1439 26.6816 12.7352 26.9461C12.3507 27.1864 12.0141 27.0903 10.5959 26.3451C8.84123 25.4077 8.48068 25.3356 7.92782 25.6721ZM11.1248 28.0758C11.8699 28.8931 11.0526 30.3113 10.1873 29.6863C9.85079 29.4459 9.80272 29.2055 9.9229 28.5085C10.1152 27.5229 10.4998 27.3787 11.1248 28.0758Z" fill="#484040"/>
<path d="M2.51946 30.0227C2.03872 31.4649 1.65413 32.7149 1.65413 32.835C1.65413 32.9072 1.87046 32.787 2.13487 32.5466C2.61561 32.1139 3.1925 32.162 4.61069 32.7149C5.40392 33.0273 5.40392 33.3158 4.75492 35.2868L4.25014 36.8012L3.3848 36.6329C2.01468 36.3685 1.17338 35.8397 1.17338 35.2628C1.17338 34.3013 0.764754 35.1426 0.0917147 37.4261C-0.0765451 37.979 -0.052508 37.979 0.500346 37.6184C1.0532 37.2579 1.2455 37.2819 3.8415 38.1472C7.03844 39.2049 7.18266 39.277 7.18266 39.9019C7.18266 40.7673 7.56726 40.3587 7.97589 39.0847C8.50471 37.3781 8.50471 37.0415 7.95185 37.5463C7.54322 37.9309 7.399 37.9309 6.26925 37.5944C5.54814 37.3781 5.01932 37.0656 5.01932 36.8973C5.01932 36.705 5.23566 35.8397 5.5241 34.9503L6.00485 33.3398L6.87018 33.5081C8.09607 33.7244 8.79315 34.109 9.03352 34.6619C9.22582 35.1186 9.32197 34.9743 9.77867 33.6763C10.0431 32.8591 10.1873 32.186 10.0671 32.186C9.94693 32.186 9.77867 32.2822 9.70656 32.4264C9.44215 32.8591 8.33645 32.6668 5.74044 31.7534C3.79343 31.0563 3.16847 30.7198 2.92809 30.2631C2.71176 29.8304 2.61561 29.7823 2.51946 30.0227Z" fill="#484040"/>
<path d="M93.1142 33.9408C92.9219 34.3735 92.321 34.6139 89.8692 35.2629L86.8646 36.0801L86.4319 35.5273C86.2156 35.2388 85.9752 35.0465 85.9031 35.0946C85.7108 35.311 87.0088 39.7578 87.4415 40.3587C88.5712 41.8971 90.7345 41.6087 91.1672 39.8299L91.3835 38.9646L92.0566 39.4453C92.6335 39.878 92.8258 39.902 93.4507 39.6617C94.6526 39.1569 94.8209 38.2916 94.1959 35.8398C93.5469 33.4361 93.4267 33.1957 93.1142 33.9408ZM93.6671 36.0801C94.1719 36.5849 94.0036 37.6426 93.3306 38.1714C92.2008 39.0607 91.2874 38.6281 90.9749 37.0897C90.8307 36.4167 90.8788 36.3205 91.5999 36.1042C92.6816 35.7436 93.3306 35.7436 93.6671 36.0801ZM90.4461 36.8974C90.5182 37.1137 90.5903 37.6906 90.5903 38.1954C90.5903 38.9165 90.4461 39.229 89.9654 39.6136C88.6914 40.5991 87.5136 40.1184 87.1049 38.4117C86.9367 37.6906 87.3453 37.258 88.6433 36.8493C89.8692 36.4407 90.2778 36.4647 90.4461 36.8974Z" fill="#484040"/>
<path d="M92.5869 42.4019C92.3225 42.8826 88.3083 45.1662 87.7314 45.1662C87.2026 45.1662 86.5055 44.2047 86.5055 43.4595C86.5055 42.8826 86.4334 42.7384 86.121 42.8586C85.9046 42.9307 85.6883 43.0028 85.6402 43.0028C85.472 43.0028 85.5441 44.3008 85.7364 44.6133C85.9527 44.9739 86.9142 45.3825 90.1352 46.4882C91.4812 46.9449 92.8033 47.5218 93.0436 47.7381C93.4523 48.0987 93.4763 48.0747 93.4763 47.2574C93.4763 46.7767 93.3802 46.32 93.2359 46.2478C93.1158 46.1757 92.9956 46.2238 92.9956 46.344C92.9956 46.7286 92.0581 46.6565 90.7601 46.1757C89.4621 45.6709 89.5102 45.5988 91.2649 44.7095C91.8658 44.397 92.4908 44.2528 92.7792 44.3249C93.284 44.4931 93.3321 44.0845 93.0196 42.6423C92.8754 41.9692 92.8513 41.9452 92.5869 42.4019Z" fill="#484040"/>
<path d="M33.2393 82.7121C33.4075 83.914 31.749 88.7214 31.0519 89.0339C30.7394 89.154 30.499 89.3223 30.499 89.4185C30.499 89.4906 31.1 89.7309 31.8211 89.9232C32.5422 90.1155 33.1431 90.2598 33.1431 90.2117C33.1431 90.1636 32.9268 89.8992 32.6624 89.6348C32.2297 89.2021 32.2297 89.0819 32.5181 88.2647C32.6864 87.7599 33.0229 86.7263 33.2633 85.9571C33.5037 85.212 33.744 84.587 33.8402 84.587C33.9123 84.611 34.7296 86.1734 35.667 88.0964C37.2535 91.4135 37.59 91.9904 37.8544 91.7501C37.9025 91.6779 38.4072 90.1396 38.9601 88.3368C39.8254 85.4523 40.0418 84.9956 40.5946 84.7793L41.1955 84.5389L40.3542 84.2264C39.8975 84.0582 39.2485 83.8418 38.912 83.7457C38.3351 83.5774 38.3351 83.5774 38.7438 84.0341C39.2966 84.6831 39.2726 85.1158 38.4553 87.4715L37.7823 89.5146L36.0276 85.909C35.0661 83.914 34.2728 82.2794 34.2488 82.2794C34.2488 82.2554 33.9844 82.1592 33.6719 82.0631C33.1431 81.9189 33.1191 81.967 33.2393 82.7121Z" fill="#484040"/>
<path d="M56.8186 83.4813C54.0544 84.7072 53.7419 88.7694 56.2658 90.6684C57.8042 91.8222 59.8233 91.702 61.3617 90.3559C62.4433 89.3944 62.7798 88.481 62.6597 86.8705C62.5395 85.3802 62.0347 84.5389 60.7848 83.6736C59.8713 83.0486 57.9965 82.9525 56.8186 83.4813ZM59.9435 84.6831C60.8328 85.3562 61.7462 87.0628 61.7462 88.0243C61.7462 90.0194 59.7512 91.1972 57.9484 90.2598C56.6023 89.5627 55.4966 87.7839 55.4966 86.3177C55.4966 85.5244 56.2658 84.4187 57.035 84.0822C57.8042 83.7697 59.0541 84.0101 59.9435 84.6831Z" fill="#484040"/>
<path d="M42.1571 84.9234C42.5657 85.2359 42.5897 85.3801 42.3013 87.7358C41.8446 91.6778 41.8206 91.75 41.2917 91.9182C40.5226 92.1826 41.0514 92.447 42.6378 92.6393C44.056 92.8076 44.0801 92.8076 43.6474 92.3509C43.1666 91.8221 43.1426 90.9327 43.4791 88.2646C43.8397 85.5484 43.9118 85.3561 44.5127 85.1638C45.0175 84.9955 45.0175 84.9955 44.5608 84.8032C44.2964 84.7071 43.5512 84.6109 42.9022 84.6109C41.8206 84.5869 41.7485 84.6109 42.1571 84.9234Z" fill="#484040"/>
<path d="M46.7955 84.9956L45.4014 85.0917L45.9783 85.6205C46.5071 86.1013 46.5792 86.3897 46.6994 89.2021C46.8676 92.1586 46.8436 92.2548 46.3148 92.6153C45.81 92.9759 45.8581 92.9999 47.4926 92.9999C48.4541 92.9999 49.2954 92.8798 49.3675 92.7596C49.4396 92.6153 49.2954 92.5192 49.031 92.5192C48.3579 92.5192 48.0455 91.8221 48.0455 90.3559C48.0455 89.3223 48.1176 89.13 48.43 89.2501C48.6464 89.3223 48.9589 89.3944 49.1271 89.3944C49.2954 89.3944 49.8723 89.8511 50.3771 90.4039C52.4923 92.7115 52.5404 92.7596 53.4298 92.7596C53.9105 92.7596 54.2951 92.6394 54.2951 92.5192C54.2951 92.375 54.1509 92.2788 54.0067 92.2788C53.8384 92.2788 52.9971 91.5096 52.1318 90.5962L50.5453 88.9136L51.1222 88.529C52.3241 87.7358 52.3 86.0292 51.0741 85.284C50.329 84.8273 49.9684 84.8033 46.7955 84.9956ZM50.2809 86.0773C50.4972 86.3417 50.6895 86.8705 50.6895 87.231C50.6895 88.0964 50.0646 88.6011 48.8867 88.7213L47.9253 88.7934L47.8532 87.3512C47.781 86.1974 47.8532 85.8609 48.2137 85.5965C48.7666 85.2119 49.728 85.4282 50.2809 86.0773Z" fill="#484040"/>
</svg>
